<svg width="47" height="20" viewBox="0 0 47 20" fill="none" xmlns="http://www.w3.org/2000/svg">
<path d="M8.6981 2.75602C9.23994 2.07829 9.60763 1.1683 9.51065 0.238403C8.71747 0.277844 7.74955 0.761693 7.18917 1.43995C6.686 2.02078 6.24066 2.96887 6.35676 3.85979C7.24715 3.93702 8.13671 3.41473 8.6981 2.75602Z" fill="white"/>
<path d="M9.50057 4.03375C8.20751 3.95673 7.1081 4.76763 6.4906 4.76763C5.87276 4.76763 4.92717 4.07257 3.90443 4.0913C2.57327 4.11085 1.33811 4.8635 0.662603 6.06056C-0.726798 8.45528 0.295941 12.0075 1.64706 13.9578C2.30319 14.9228 3.09395 15.9852 4.13588 15.947C5.12034 15.9084 5.50621 15.3096 6.70286 15.3096C7.89863 15.3096 8.24621 15.947 9.28832 15.9277C10.369 15.9084 11.0446 14.9623 11.7008 13.9965C12.4535 12.8965 12.7616 11.8345 12.781 11.7761C12.7616 11.7568 10.6971 10.9648 10.678 8.59003C10.6585 6.60156 12.2988 5.65574 12.376 5.59708C11.4497 4.22705 10.0023 4.07257 9.50057 4.03375Z" fill="white"/>
<path d="M20.7595 1.34269C23.5699 1.34269 25.5269 3.27995 25.5269 6.10045C25.5269 8.93103 23.5296 10.8784 20.689 10.8784H17.5773V15.8268H15.3291V1.34268L20.7595 1.34269ZM17.5773 8.99124H20.1569C22.1143 8.99124 23.2284 7.93742 23.2284 6.11052C23.2284 4.28381 22.1143 3.23987 20.167 3.23987H17.5773V8.99124Z" fill="white"/>
<path d="M26.1143 12.8257C26.1143 10.9786 27.5296 9.84445 30.0391 9.70389L32.9297 9.53332V8.72035C32.9297 7.54592 32.1367 6.84331 30.812 6.84331C29.557 6.84331 28.7741 7.44543 28.5836 8.38909H26.5359C26.6564 6.48183 28.2823 5.07661 30.8922 5.07661C33.4517 5.07661 35.0877 6.43169 35.0877 8.54959V15.8268H33.0099V14.0903H32.9599C32.3477 15.2648 31.0126 16.0074 29.6275 16.0074C27.5598 16.0074 26.1143 14.7226 26.1143 12.8257ZM32.9297 11.8721V11.039L30.3299 11.1995C29.0351 11.2899 28.3024 11.8621 28.3024 12.7654C28.3024 13.6888 29.0653 14.2911 30.2296 14.2911C31.7452 14.2911 32.9297 13.2471 32.9297 11.8721Z" fill="white"/>
<path d="M37.0493 19.7114V17.9548C37.2096 17.9948 37.5709 17.9948 37.7518 17.9948C38.7554 17.9948 39.2975 17.5734 39.6286 16.4893C39.6286 16.4692 39.8195 15.8469 39.8195 15.8369L36.0054 5.26732H38.3539L41.0241 13.8595H41.064L43.7343 5.26732H46.0228L42.0677 16.3788C41.1647 18.9385 40.1208 19.7615 37.9326 19.7615C37.7518 19.7615 37.2097 19.7414 37.0493 19.7114Z" fill="white"/>
</svg>
