<svg width="41" height="20" viewBox="0 0 41 20" fill="none" xmlns="http://www.w3.org/2000/svg">
<path d="M18.8151 14.4744H17.3352V2.88884H21.2585C22.2529 2.88884 23.1007 3.2223 23.7944 3.8892C24.5036 4.55611 24.8581 5.37036 24.8581 6.33194C24.8581 7.3168 24.5036 8.13104 23.7944 8.79019C23.1084 9.44935 22.2606 9.77505 21.2585 9.77505H18.8151V14.4744ZM18.8151 4.31571V8.35593H21.2894C21.8752 8.35593 22.3685 8.15431 22.7539 7.75881C23.147 7.36332 23.3474 6.88253 23.3474 6.3397C23.3474 5.80462 23.147 5.33158 22.7539 4.93609C22.3685 4.52509 21.8829 4.32347 21.2894 4.32347H18.8151V4.31571Z" fill="white"/>
<path d="M28.7273 6.28542C29.8219 6.28542 30.6851 6.58009 31.3172 7.16945C31.9492 7.75881 32.2653 8.56531 32.2653 9.58893V14.4744H30.8547V13.3732H30.7931C30.1841 14.2805 29.3671 14.7303 28.3497 14.7303C27.4787 14.7303 26.7541 14.4744 26.1683 13.9548C25.5825 13.4353 25.2896 12.7916 25.2896 12.0162C25.2896 11.1942 25.5979 10.5428 26.2146 10.062C26.8312 9.57342 27.6559 9.33302 28.6811 9.33302C29.5598 9.33302 30.2843 9.49588 30.847 9.82157V9.48036C30.847 8.9608 30.6466 8.52653 30.2381 8.16206C29.8296 7.79759 29.3517 7.61923 28.8044 7.61923C27.9797 7.61923 27.3245 7.96819 26.8466 8.67387L25.544 7.85187C26.2608 6.80498 27.3245 6.28542 28.7273 6.28542ZM26.8158 12.0394C26.8158 12.4272 26.9777 12.7529 27.3091 13.0088C27.6328 13.2647 28.0182 13.3965 28.4576 13.3965C29.0819 13.3965 29.6369 13.1639 30.1225 12.6986C30.6081 12.2333 30.8547 11.6905 30.8547 11.0623C30.3922 10.6979 29.7525 10.5117 28.9277 10.5117C28.3265 10.5117 27.8255 10.6591 27.4247 10.946C27.0162 11.2484 26.8158 11.6129 26.8158 12.0394Z" fill="white"/>
<path d="M40.3124 6.5414L35.3793 17.9564H33.8532L35.6877 13.9627L32.4349 6.5414H34.0459L36.3891 12.2334H36.4199L38.7014 6.5414H40.3124Z" fill="white"/>
<path d="M12.9285 8.83673C12.9285 8.35128 12.8854 7.88677 12.8052 7.4401H6.60189V9.99916L10.1745 9.99994C10.0296 10.8514 9.56326 11.5772 8.84874 12.0611V13.7214H10.9753C12.2171 12.5652 12.9285 10.8561 12.9285 8.83673Z" fill="#4285F4"/>
<path d="M8.8495 12.0612C8.25753 12.4629 7.49522 12.6979 6.60342 12.6979C4.8807 12.6979 3.41929 11.53 2.89592 9.95581H0.702254V11.6681C1.78907 13.8378 4.02281 15.3267 6.60342 15.3267C8.38702 15.3267 9.88544 14.7366 10.9761 13.7207L8.8495 12.0612Z" fill="#34A853"/>
<path d="M2.68928 8.68549C2.68928 8.24347 2.76251 7.81619 2.89585 7.41449V5.70225H0.702188C0.252818 6.59947 0 7.61224 0 8.68549C0 9.75875 0.253589 10.7715 0.702188 11.6687L2.89585 9.9565C2.76251 9.5548 2.68928 9.12751 2.68928 8.68549Z" fill="#FABB05"/>
<path d="M6.60342 4.67243C7.57692 4.67243 8.44868 5.00976 9.137 5.66892L11.0216 3.77444C9.87696 2.70196 8.38471 2.04358 6.60342 2.04358C4.02358 2.04358 1.789 3.53247 0.702188 5.70225L2.89585 7.41449C3.41922 5.84028 4.8807 4.67243 6.60342 4.67243Z" fill="#E94235"/>
</svg>
