<svg width="213" height="34" viewBox="0 0 213 34" fill="none" xmlns="http://www.w3.org/2000/svg">
<path fill-rule="evenodd" clip-rule="evenodd" d="M7.00004 6.56913L44.8617 6.56913V12.4202L7.00004 12.4202V6.56913ZM44.8617 18.9894V18.9908H51.4308V0H44.8617H6.9996V6.7234e-05H0.430908V31.5319H7.00004V18.9894H44.8617ZM38.2935 31.5313V24.9622L7.00056 24.9622L7.00056 31.5313L38.2935 31.5313ZM51.4309 24.9622V31.5314L44.8618 31.5314V24.9622H51.4309Z" fill="white"/>
<path d="M66.1629 31.5317V23.1317H73.1229V24.3677H67.7109V26.7197H72.6429V27.8957H67.7109V30.2717H73.2189V31.5317H66.1629ZM74.7232 31.5317V23.1317H76.2712V30.2117H81.0592V31.5317H74.7232ZM82.4046 31.5317V23.1317H89.3646V24.3677H83.9526V26.7197H88.8846V27.8957H83.9526V30.2717H89.4606V31.5317H82.4046ZM94.5647 31.5317L90.5927 23.1317H92.3087L95.4647 29.9357L98.6207 23.1317H100.301L96.3287 31.5317H94.5647ZM99.0947 31.5317L103.031 23.1317H104.999L108.923 31.5317H107.267L106.187 29.1797H101.807L100.715 31.5317H99.0947ZM102.335 28.0397H105.659L104.003 24.4397L102.335 28.0397ZM111.079 31.5317V24.4637H107.995V23.1317H115.759V24.4637H112.663V31.5317H111.079ZM117.115 31.5317V23.1317H124.075V24.3677H118.663V26.7197H123.595V27.8957H118.663V30.2717H124.171V31.5317H117.115ZM132.01 31.5317V28.8317L128.014 23.1317H129.814L132.874 27.4997L135.874 23.1317H137.506L133.594 28.8317V31.5317H132.01ZM142.497 31.7717C139.521 31.7717 137.577 30.0077 137.577 27.3317C137.577 24.6437 139.521 22.8917 142.497 22.8917C145.461 22.8917 147.405 24.6437 147.405 27.3317C147.405 30.0077 145.461 31.7717 142.497 31.7717ZM142.497 30.4997C144.477 30.4997 145.797 29.2277 145.797 27.3317C145.797 25.4237 144.477 24.1517 142.497 24.1517C140.505 24.1517 139.185 25.4237 139.185 27.3317C139.185 29.2277 140.505 30.4997 142.497 30.4997ZM152.962 31.7717C150.142 31.7717 148.87 30.5477 148.87 27.8237V23.1317H150.454V27.7037C150.454 29.6117 151.246 30.4637 152.974 30.4637C154.738 30.4637 155.53 29.6117 155.53 27.7037V23.1317H157.078V27.8237C157.078 30.5477 155.794 31.7717 152.962 31.7717ZM158.721 31.5317V23.1317H162.897C165.153 23.1317 166.413 23.9957 166.413 25.5197C166.413 26.5277 165.825 27.2597 164.877 27.5357C165.921 27.7517 166.485 28.4357 166.545 29.6477L166.629 31.5317H164.997L164.937 29.9117C164.889 28.8437 164.325 28.3517 163.113 28.3517H160.269V31.5317H158.721ZM162.813 27.2237C164.061 27.2237 164.781 26.6717 164.781 25.7477C164.781 24.8357 164.073 24.2957 162.849 24.2957H160.269V27.2237H162.813ZM170.931 31.5317V23.1317H172.479V30.2117H177.267V31.5317H170.931ZM178.613 31.5317V23.1317H180.161V31.5317H178.613ZM181.864 31.5317V23.1317H188.68V24.4277H183.448V26.9717H188.368V28.2437H183.448V31.5317H181.864ZM190.097 31.5317V23.1317H197.057V24.3677H191.645V26.7197H196.577V27.8957H191.645V30.2717H197.153V31.5317H190.097Z" fill="white"/>
<path d="M213 24.9624L213 31.5315L206.431 31.5315L206.431 24.9624L213 24.9624Z" fill="white"/>
</svg>
