<svg width="164" height="32" viewBox="0 0 164 32" fill="none" xmlns="http://www.w3.org/2000/svg">
<path fill-rule="evenodd" clip-rule="evenodd" d="M6.56913 6.80319L44.4308 6.80319V12.6543L6.56913 12.6543V6.80319ZM44.4308 19.2234V19.2248H50.9999V0.234065H44.4308L6.56869 0.234064V0.234131H0V31.7659H6.56913V19.2234L44.4308 19.2234ZM37.8626 31.7654V25.1963L6.56965 25.1963L6.56965 31.7654L37.8626 31.7654ZM51 25.1963V31.7654H44.4309V25.1963H51Z" fill="black"/>
<path d="M65.828 20.0001V11.6001H72.62V12.5361H67.016V15.3321H72.14V16.2321H67.016V19.0401H72.716V20.0001H65.828ZM74.0523 20.0001V11.4801H75.1923V20.0001H74.0523ZM79.9896 20.2401C78.0816 20.2401 76.4856 19.1121 76.4856 16.9761C76.4856 15.0321 77.8896 13.7121 79.9896 13.7121C82.2096 13.7121 83.5656 15.1161 83.3376 17.1801H77.6136C77.6256 18.6801 78.7656 19.4001 79.9896 19.4001C80.9856 19.4001 81.9456 18.9081 82.1976 17.9841L83.2416 18.0561C83.0016 19.4361 81.6216 20.2401 79.9896 20.2401ZM77.6256 16.3401H82.2336C82.1856 15.2481 81.2616 14.5161 79.9896 14.5161C78.7056 14.5161 77.7696 15.2481 77.6256 16.3401ZM86.8271 20.0001L83.8511 13.9521H85.0751L87.4511 18.8361L89.8271 13.9521H90.9551L88.0511 20.0001H86.8271ZM93.7438 20.1321C92.2438 20.1321 91.3558 19.4961 91.3558 18.3801C91.3558 17.3961 92.0998 16.8081 93.7558 16.5321L96.0238 16.1601C96.3478 16.1121 96.5038 16.0641 96.5038 15.7881C96.5038 14.9961 95.8558 14.5401 94.7758 14.5401C93.6478 14.5401 92.8438 15.0441 92.7718 15.9561H91.6438C91.8118 14.5281 92.9758 13.7121 94.7998 13.7121C96.6358 13.7121 97.6678 14.5401 97.6678 15.9801V18.1521L97.9438 20.0001H96.8158L96.6238 18.8121C96.2278 19.6041 95.0758 20.1321 93.7438 20.1321ZM94.0918 19.3281C95.4838 19.3281 96.5158 18.6441 96.5278 17.5521L96.5398 16.8681L94.0078 17.2761C93.0118 17.4321 92.5198 17.7441 92.5198 18.3081C92.5198 18.9561 93.0838 19.3281 94.0918 19.3281ZM102.145 20.0001C100.561 20.0001 100.009 19.5441 100.009 18.2361V14.8401H98.5333V13.9521H100.009V12.3201H101.137V13.9521H103.309V14.8401H101.425C101.209 14.8401 101.137 14.9121 101.137 15.0921V17.9841C101.137 18.7881 101.461 19.0521 102.373 19.0521H103.177V20.0001H102.145ZM107.587 20.2401C105.679 20.2401 104.083 19.1121 104.083 16.9761C104.083 15.0321 105.487 13.7121 107.587 13.7121C109.807 13.7121 111.163 15.1161 110.935 17.1801H105.211C105.223 18.6801 106.363 19.4001 107.587 19.4001C108.583 19.4001 109.543 18.9081 109.795 17.9841L110.839 18.0561C110.599 19.4361 109.219 20.2401 107.587 20.2401ZM105.223 16.3401H109.831C109.783 15.2481 108.859 14.5161 107.587 14.5161C106.303 14.5161 105.367 15.2481 105.223 16.3401ZM114.738 22.4961V21.6441H115.902C116.742 21.6441 117.186 21.3441 117.582 20.4921L117.762 20.1081L114.378 13.9521H115.614L118.278 18.9801L120.594 13.9521H121.698L118.614 20.6001C117.966 22.0041 117.27 22.4961 115.938 22.4961H114.738ZM125.682 20.2401C123.558 20.2401 122.154 18.9321 122.154 16.9761C122.154 15.0201 123.558 13.7121 125.682 13.7121C127.806 13.7121 129.222 15.0201 129.222 16.9761C129.222 18.9321 127.806 20.2401 125.682 20.2401ZM125.682 19.3641C127.098 19.3641 128.058 18.3921 128.058 16.9761C128.058 15.5601 127.098 14.5881 125.682 14.5881C124.278 14.5881 123.306 15.5601 123.306 16.9761C123.306 18.3921 124.278 19.3641 125.682 19.3641ZM133.046 20.1201C131.318 20.1201 130.442 19.2321 130.442 17.4921V13.9521H131.594V17.3961C131.594 18.5961 132.194 19.2081 133.406 19.2081C134.762 19.2081 135.506 18.4281 135.506 17.0481V13.9521H136.646V17.9001L136.838 20.0001H135.71L135.566 18.7521C135.146 19.6281 134.258 20.1201 133.046 20.1201ZM138.119 20.0001V13.9521H139.247V15.4641C139.439 14.4561 140.111 13.9281 141.287 13.9281H142.115V14.9121H141.227C139.919 14.9121 139.259 15.6441 139.259 17.0481V20.0001H138.119ZM145.771 20.0001V11.4801H146.911V20.0001H145.771ZM148.396 20.0001V13.9521H149.536V20.0001H148.396ZM148.972 12.7761C148.468 12.7761 148.144 12.5121 148.144 12.1041C148.144 11.6841 148.468 11.4321 148.972 11.4321C149.476 11.4321 149.8 11.6841 149.8 12.1041C149.8 12.5121 149.476 12.7761 148.972 12.7761ZM152.138 20.0001V14.8401H150.662V13.9521H152.138V12.9561C152.138 11.8521 152.726 11.4321 154.286 11.4321H155.486V12.3081H154.346C153.554 12.3081 153.254 12.4881 153.254 13.0281V13.7121C153.254 13.8801 153.326 13.9521 153.506 13.9521H155.414V14.8401H153.278V20.0001H152.138ZM159.536 20.2401C157.628 20.2401 156.032 19.1121 156.032 16.9761C156.032 15.0321 157.436 13.7121 159.536 13.7121C161.756 13.7121 163.112 15.1161 162.884 17.1801H157.16C157.172 18.6801 158.312 19.4001 159.536 19.4001C160.532 19.4001 161.492 18.9081 161.744 17.9841L162.788 18.0561C162.548 19.4361 161.168 20.2401 159.536 20.2401ZM157.172 16.3401H161.78C161.732 15.2481 160.808 14.5161 159.536 14.5161C158.252 14.5161 157.316 15.2481 157.172 16.3401Z" fill="black"/>
</svg>
