<svg width="88" height="88" viewBox="0 0 88 88" fill="none" xmlns="http://www.w3.org/2000/svg">
<rect x="0.5" y="0.5" width="87" height="87" rx="43.5" stroke="#CACACA"/>
<g clip-path="url(#clip0_2205_12763)">
<path d="M34.7188 35.332H52.9454" stroke="#0D0D0D" stroke-width="1.63" stroke-miterlimit="10" stroke-linecap="round"/>
<path d="M37.0273 40.668H50.634" stroke="#0D0D0D" stroke-width="1.63" stroke-miterlimit="10" stroke-linecap="round"/>
<path d="M43.834 59.289C47.5306 59.289 50.5273 56.2923 50.5273 52.5957C50.5273 48.8991 47.5306 45.9023 43.834 45.9023C40.1373 45.9023 37.1406 48.8991 37.1406 52.5957C37.1406 56.2923 40.1373 59.289 43.834 59.289Z" stroke="#55EC3B" stroke-width="1.63" stroke-linejoin="round"/>
<path d="M45.0938 59.4435L48.8271 67.3702L49.8471 63.2035L53.7538 64.9369L49.6137 56.2969" stroke="#55EC3B" stroke-width="1.52" stroke-linejoin="round"/>
<path d="M42.5741 59.443L38.8407 67.3697L37.8207 63.203L33.9141 64.9364L36.8341 58.9297" stroke="#55EC3B" stroke-width="1.63" stroke-linecap="round" stroke-linejoin="round"/>
<path d="M46.9714 52.5931C46.9714 54.3265 45.5647 55.7331 43.8314 55.7331C42.0981 55.7331 40.6914 54.3265 40.6914 52.5931C40.6914 50.8598 42.0981 49.4531 43.8314 49.4531C45.5647 49.4531 46.9714 50.8598 46.9714 52.5931Z" stroke="#55EC3B" stroke-width="1.63" stroke-linejoin="round"/>
<path d="M34.1733 57.3333H24V24H63.3333V57.3333H53.36" stroke="#0D0D0D" stroke-width="1.63" stroke-miterlimit="10" stroke-linecap="round"/>
<path d="M27.7578 32.1959V27.3359H32.6178" stroke="#0D0D0D" stroke-width="1.63" stroke-miterlimit="10" stroke-linecap="round"/>
<path d="M55.0391 27.3359H59.9057V32.1959" stroke="#0D0D0D" stroke-width="1.63" stroke-miterlimit="10" stroke-linecap="round"/>
<path d="M59.9057 48.7422V53.6022H55.0391" stroke="#0D0D0D" stroke-width="1.63" stroke-miterlimit="10" stroke-linecap="round"/>
<path d="M32.6178 53.6022H27.7578V48.7422" stroke="#0D0D0D" stroke-width="1.63" stroke-miterlimit="10" stroke-linecap="round"/>
</g>
<defs>
<clipPath id="clip0_2205_12763">
<rect width="41.3333" height="48" fill="white" transform="translate(23.332 20)"/>
</clipPath>
</defs>
</svg>
