<svg width="79" height="20" viewBox="0 0 79 20" fill="none" xmlns="http://www.w3.org/2000/svg">
<path d="M34.9223 12.1775V9.24789C34.9223 8.12592 34.2366 7.39353 33.0679 7.39353C32.4758 7.39353 31.8524 7.59611 31.4005 8.21942C31.0577 7.6896 30.5747 7.39353 29.8423 7.39353C29.3592 7.39353 28.8605 7.53378 28.471 8.07917V7.48702H27.4581V12.1775H28.4866V9.59071C28.4866 8.76482 28.9229 8.37525 29.6085 8.37525C30.2942 8.37525 30.637 8.81157 30.637 9.59071V12.1775H31.6655V9.59071C31.6655 8.76482 32.1485 8.37525 32.7874 8.37525C33.4731 8.37525 33.8159 8.81157 33.8159 9.59071V12.1775H34.9223ZM50.1155 7.48702H48.4482V6.06899H47.4197V7.48702H46.4847V8.42199H47.4197V10.5724C47.4197 11.6476 47.856 12.2865 49.0247 12.2865C49.461 12.2865 49.9597 12.1463 50.2869 11.9437L49.9909 11.0711C49.6948 11.2737 49.352 11.3204 49.1182 11.3204C48.6352 11.3204 48.4326 11.0243 48.4326 10.5413V8.43758H50.0999V7.48702H50.1155ZM58.7952 7.39353C58.203 7.39353 57.8134 7.6896 57.5797 8.07917V7.48702H56.5512V12.1775H57.5797V9.54396C57.5797 8.76482 57.9225 8.3285 58.5614 8.3285C58.764 8.3285 58.9977 8.37525 59.2003 8.42199L59.4964 7.44028C59.2938 7.39353 58.9977 7.39353 58.7952 7.39353ZM45.6588 7.8766C45.1758 7.53377 44.4901 7.39353 43.7577 7.39353C42.589 7.39353 41.8099 7.98568 41.8099 8.90506C41.8099 9.6842 42.402 10.1205 43.4149 10.2764L43.898 10.3231C44.4278 10.4166 44.7239 10.5724 44.7239 10.8062C44.7239 11.149 44.3343 11.3983 43.6486 11.3983C42.963 11.3983 42.4332 11.149 42.0904 10.9152L41.6073 11.6944C42.1371 12.084 42.8695 12.2865 43.6019 12.2865C44.9732 12.2865 45.7523 11.6476 45.7523 10.775C45.7523 9.94911 45.1134 9.51279 44.1473 9.35696L43.6642 9.31022C43.2279 9.26347 42.8851 9.16997 42.8851 8.8739C42.8851 8.53107 43.2279 8.34408 43.7577 8.34408C44.3499 8.34408 44.9264 8.59341 45.2225 8.73365L45.6588 7.8766ZM72.9132 7.39353C72.3211 7.39353 71.9315 7.6896 71.6977 8.07917V7.48702H70.6693V12.1775H71.6977V9.54396C71.6977 8.76482 72.0406 8.3285 72.6795 8.3285C72.882 8.3285 73.1158 8.37525 73.3184 8.42199L73.6144 7.44028C73.3963 7.39353 73.1002 7.39353 72.9132 7.39353ZM59.8236 9.82445C59.8236 11.2425 60.8053 12.271 62.3169 12.271C63.0025 12.271 63.4856 12.1307 63.9842 11.7411L63.5012 10.9152C63.1116 11.2113 62.722 11.3516 62.2857 11.3516C61.4598 11.3516 60.8677 10.7594 60.8677 9.84003C60.8677 8.96739 61.4598 8.37525 62.2857 8.3285C62.722 8.3285 63.1116 8.46874 63.5012 8.76482L63.9842 7.93893C63.5012 7.54935 63.0025 7.40911 62.3169 7.40911C60.8053 7.39353 59.8236 8.42199 59.8236 9.82445ZM69.298 7.48702H68.2695V8.07917C67.9267 7.64286 67.4436 7.39353 66.8047 7.39353C65.4802 7.39353 64.4673 8.422 64.4673 9.84003C64.4673 11.2581 65.4958 12.2865 66.8047 12.2865C67.4904 12.2865 67.9734 12.0372 68.2695 11.6009V12.193H69.298V7.48702ZM65.5425 9.82445C65.5425 8.99856 66.0723 8.31292 66.9606 8.31292C67.7864 8.31292 68.3786 8.95181 68.3786 9.82445C68.3786 10.6503 67.7864 11.336 66.9606 11.336C66.0723 11.2892 65.5425 10.6659 65.5425 9.82445ZM53.2788 7.39353C51.9075 7.39353 50.9414 8.37525 50.9414 9.84003C50.9414 11.3048 51.9231 12.2865 53.3412 12.2865C54.0268 12.2865 54.7125 12.084 55.2423 11.6476L54.7592 10.9152C54.3696 11.2113 53.8866 11.3983 53.3879 11.3983C52.749 11.3983 52.1257 11.1022 51.9699 10.2764H55.4293V9.88678C55.476 8.35966 54.6034 7.39353 53.2788 7.39353ZM53.2788 8.26617C53.9177 8.26617 54.3541 8.65574 54.4475 9.38813H52.001C52.1101 8.76482 52.5464 8.26617 53.2788 8.26617ZM78.7256 5.63267H77.6971V8.07917C77.3543 7.64286 76.8712 7.39353 76.2323 7.39353C74.9078 7.39353 73.8949 8.422 73.8949 9.84003C73.8949 11.2581 74.9234 12.2865 76.2323 12.2865C76.918 12.2865 77.4011 12.0372 77.6971 11.6009V12.193H78.7256V5.63267ZM74.9545 9.82445C74.9545 8.99856 75.4844 8.31292 76.3726 8.31292C77.1985 8.31292 77.7906 8.95181 77.7906 9.82445C77.7906 10.6503 77.1985 11.336 76.3726 11.336C75.4999 11.2892 74.9545 10.6659 74.9545 9.82445ZM40.6879 7.48702H39.6594V8.07917C39.3166 7.64286 38.8336 7.39353 38.1947 7.39353C36.8701 7.39353 35.8572 8.422 35.8572 9.84003C35.8572 11.2581 36.8857 12.2865 38.1947 12.2865C38.8803 12.2865 39.3634 12.0372 39.6594 11.6009V12.193H40.6879V7.48702ZM36.8857 9.82445C36.8857 8.99856 37.4155 8.31292 38.3037 8.31292C39.1296 8.31292 39.7218 8.95181 39.7218 9.82445C39.7218 10.6503 39.1296 11.336 38.3037 11.336C37.4155 11.2892 36.8857 10.6659 36.8857 9.82445Z" fill="white"/>
<path d="M14.5535 4.24122H8.40634V15.2837H14.5535V4.24122Z" fill="#FF5F00"/>
<path d="M8.7925 9.76558C8.7925 7.52345 9.84506 5.53044 11.4644 4.24122C10.2748 3.307 8.77382 2.74023 7.12959 2.74023C3.24946 2.74023 0.104248 5.87922 0.104248 9.76558C0.104248 13.6457 3.24323 16.7909 7.12959 16.7909C8.76759 16.7909 10.2686 16.2242 11.4644 15.2899C9.84506 14.0194 8.7925 12.0077 8.7925 9.76558Z" fill="#EB001B"/>
<path d="M22.8432 9.76558C22.8432 13.6457 19.7042 16.7909 15.8178 16.7909C14.1798 16.7909 12.6788 16.2242 11.483 15.2899C13.121 14.0007 14.1549 12.0139 14.1549 9.76558C14.1549 7.52345 13.1024 5.53044 11.483 4.24122C12.6726 3.307 14.1736 2.74024 15.8178 2.74024C19.7042 2.74024 22.8432 5.8979 22.8432 9.76558Z" fill="#F79E1B"/>
</svg>
