<svg width="89" height="88" viewBox="0 0 89 88" fill="none" xmlns="http://www.w3.org/2000/svg">
<rect x="1.3335" y="0.5" width="87" height="87" rx="43.5" stroke="#CACACA"/>
<g clip-path="url(#clip0_2134_8842)">
<path d="M44.8361 66.5323L67.8714 40.4506L61.8646 30.4991H27.8154L21.8086 40.4506L44.8439 66.5323" stroke="#1F1F22" stroke-width="1.65" stroke-linecap="round" stroke-linejoin="round"/>
<path d="M22.2666 40.4531H67.4077" stroke="#1F1F22" stroke-width="1.65" stroke-linecap="round" stroke-linejoin="round"/>
<path d="M34.7451 40.4508L44.806 66.181" stroke="#1F1F22" stroke-width="1.65" stroke-linecap="round" stroke-linejoin="round"/>
<path d="M34.7054 40.3252L27.8394 30.6706" stroke="#1F1F22" stroke-width="1.65" stroke-linecap="round" stroke-linejoin="round"/>
<path d="M44.2646 30.6982L34.8911 40.267" stroke="#1F1F22" stroke-width="1.65" stroke-linecap="round" stroke-linejoin="round"/>
<path d="M54.932 40.4508L44.8633 66.181" stroke="#1F1F22" stroke-width="1.65" stroke-linecap="round" stroke-linejoin="round"/>
<path d="M54.9712 40.3252L61.8373 30.6706" stroke="#1F1F22" stroke-width="1.65" stroke-linecap="round" stroke-linejoin="round"/>
<path d="M45.4121 30.6982L54.7856 40.267" stroke="#1F1F22" stroke-width="1.65" stroke-linecap="round" stroke-linejoin="round"/>
<path d="M44.8477 24.5909V20.9743" stroke="#55EC3B" stroke-width="1.65" stroke-linecap="round" stroke-linejoin="round"/>
<path d="M56.1562 24.5881L58.6012 21.4323" stroke="#55EC3B" stroke-width="1.65" stroke-linecap="round" stroke-linejoin="round"/>
<path d="M33.5245 24.5881L31.0796 21.4323" stroke="#55EC3B" stroke-width="1.65" stroke-linecap="round" stroke-linejoin="round"/>
</g>
<defs>
<clipPath id="clip0_2134_8842">
<rect width="48.0156" height="47.5079" fill="white" transform="translate(20.8335 20.0001)"/>
</clipPath>
</defs>
</svg>
