<svg width="89" height="88" viewBox="0 0 89 88" fill="none" xmlns="http://www.w3.org/2000/svg">
<rect x="0.666992" y="0.5" width="87" height="87" rx="43.5" stroke="#CACACA"/>
<g clip-path="url(#clip0_2134_8852)">
<path d="M37.0737 43.4879C37.0737 43.4879 40.9839 45.1336 41.8348 48.0029" stroke="#1F1F22" stroke-width="1.40653" stroke-linejoin="round"/>
<path d="M42.9951 37.6231C41.2651 33.3051 43.5999 26.9124 48.5227 24.1416C56.1461 19.8517 63.1999 21.0261 63.1999 21.0261C63.1999 21.0261 64.0297 28.6425 60.2251 35.654C57.194 41.2309 49.233 43.1649 45.2596 40.4995" stroke="#55EC3B" stroke-width="1.63" stroke-miterlimit="10"/>
<path d="M36.9267 43.5594C36.343 45.4864 32.6439 45.9505 30.084 44.4385C26.7786 42.4834 25.6675 39.9517 25.6675 39.9517C25.6675 39.9517 28.361 38.5944 31.8492 38.8827C34.8099 39.1289 37.4401 41.8435 36.9267 43.5594Z" stroke="#1F1F22" stroke-width="1.63" stroke-miterlimit="10"/>
<path d="M53.6488 66.521C53.6066 64.9035 52.601 63.3985 50.9835 62.8008C49.4011 62.2171 47.6641 62.7304 46.574 63.8908C45.8848 62.1397 44.1759 60.9019 42.1856 60.9019C40.2235 60.9019 38.5427 62.1608 37.8184 63.8557" stroke="#1F1F22" stroke-width="1.63" stroke-linecap="round" stroke-linejoin="round"/>
<path d="M55.2594 59.0737C54.943 57.2241 53.5364 55.6558 51.5814 55.2409C49.6685 54.833 47.7556 55.7121 46.7007 57.2241C45.688 54.826 43.311 53.0397 40.5472 53.0397C37.7833 53.0397 35.3219 54.7838 34.3373 57.2452C33.2754 55.7402 31.3696 54.8611 29.4567 55.269C27.5086 55.691 26.0951 57.2522 25.7856 59.1018" stroke="#1F1F22" stroke-width="1.63" stroke-linecap="round" stroke-linejoin="round"/>
<path d="M55.9644 27.9337C55.9644 27.9337 44.7614 35.2898 40.373 52.9277" stroke="#55EC3B" stroke-width="1.63" stroke-linecap="round" stroke-linejoin="round"/>
</g>
<defs>
<clipPath id="clip0_2134_8852">
<rect width="39.6289" height="47.4" fill="white" transform="translate(24.5264 20)"/>
</clipPath>
</defs>
</svg>
