<svg width="16" height="16" viewBox="0 0 16 16" fill="none" xmlns="http://www.w3.org/2000/svg">
<g clip-path="url(#clip0_2951_9415)">
<path d="M0.667969 0.667969H3.33464L5.1213 9.59464C5.18226 9.90157 5.34924 10.1773 5.593 10.3735C5.83676 10.5697 6.14177 10.674 6.45464 10.668H12.9346C13.2475 10.674 13.5525 10.5697 13.7963 10.3735C14.04 10.1773 14.207 9.90157 14.268 9.59464L15.3346 4.0013H4.0013M6.66797 14.0013C6.66797 14.3695 6.36949 14.668 6.0013 14.668C5.63311 14.668 5.33464 14.3695 5.33464 14.0013C5.33464 13.6331 5.63311 13.3346 6.0013 13.3346C6.36949 13.3346 6.66797 13.6331 6.66797 14.0013ZM14.0013 14.0013C14.0013 14.3695 13.7028 14.668 13.3346 14.668C12.9664 14.668 12.668 14.3695 12.668 14.0013C12.668 13.6331 12.9664 13.3346 13.3346 13.3346C13.7028 13.3346 14.0013 13.6331 14.0013 14.0013Z" stroke="white" stroke-width="1.6" stroke-linecap="round" stroke-linejoin="round"/>
</g>
<defs>
<clipPath id="clip0_2951_9415">
<rect width="16" height="16" fill="white"/>
</clipPath>
</defs>
</svg>
