<svg width="89" height="89" viewBox="0 0 89 89" fill="none" xmlns="http://www.w3.org/2000/svg">
<rect x="1" y="1" width="87" height="87" rx="43.5" stroke="#CACACA"/>
<path d="M24.5 39.5L24.9042 38.8279C24.662 38.6822 24.36 38.6781 24.1139 38.8173C23.8678 38.9565 23.7157 39.2173 23.7157 39.5H24.5ZM64.5 39.5H65.2843C65.2843 39.2173 65.1322 38.9565 64.8861 38.8173C64.64 38.6781 64.338 38.6822 64.0958 38.8279L64.5 39.5ZM27.7884 60.664L27.1163 61.0682L27.9247 62.4125L28.5968 62.0082L27.7884 60.664ZM41.0958 50.3963L41.7679 50.8005L42.5763 49.4563L41.9042 49.0521L41.0958 50.3963ZM23.7157 39.5V61.3361H25.2843V39.5H23.7157ZM23.7157 61.3361C23.7157 63.6187 25.8466 65.2843 28.1926 65.2843V63.7157C26.4767 63.7157 25.2843 62.5338 25.2843 61.3361H23.7157ZM28.1926 65.2843H60.8074V63.7157H28.1926V65.2843ZM60.8074 65.2843C63.1534 65.2843 65.2843 63.6187 65.2843 61.3361H63.7157C63.7157 62.5338 62.5233 63.7157 60.8074 63.7157V65.2843ZM65.2843 61.3361V39.5H63.7157V61.3361H65.2843ZM64.0958 38.8279C57.0063 43.0917 51.4742 46.4188 45.9421 49.746C40.41 53.0731 34.8778 56.4003 27.7884 60.664L28.5968 62.0082C35.6863 57.7445 41.2184 54.4173 46.7505 51.0902C52.2826 47.763 57.8148 44.4359 64.9042 40.1721L64.0958 38.8279ZM24.0958 40.1721L41.0958 50.3963L41.9042 49.0521L24.9042 38.8279L24.0958 40.1721Z" fill="#0D0D0D"/>
<path d="M24.5 39.5L23.8618 39.0441L23.7157 39.2487V39.5H24.5ZM64.5 39.5H65.2843C65.2843 39.3365 65.2332 39.1772 65.1382 39.0441L64.5 39.5ZM62.6382 35.5441C62.3864 35.1917 61.8966 35.11 61.5441 35.3618C61.1917 35.6136 61.11 36.1034 61.3618 36.4559L62.6382 35.5441ZM27.6382 36.4559C27.89 36.1034 27.8083 35.6136 27.4559 35.3618C27.1034 35.11 26.6136 35.1917 26.3618 35.5441L27.6382 36.4559ZM23.7157 39.5V61.3361H25.2843V39.5H23.7157ZM23.7157 61.3361C23.7157 63.6187 25.8466 65.2843 28.1926 65.2843V63.7157C26.4767 63.7157 25.2843 62.5338 25.2843 61.3361H23.7157ZM28.1926 65.2843H60.8074V63.7157H28.1926V65.2843ZM60.8074 65.2843C63.1534 65.2843 65.2843 63.6187 65.2843 61.3361H63.7157C63.7157 62.5338 62.5233 63.7157 60.8074 63.7157V65.2843ZM65.2843 61.3361V39.5H63.7157V61.3361H65.2843ZM65.1382 39.0441L62.6382 35.5441L61.3618 36.4559L63.8618 39.9559L65.1382 39.0441ZM25.1382 39.9559L27.6382 36.4559L26.3618 35.5441L23.8618 39.0441L25.1382 39.9559Z" fill="#0D0D0D"/>
<path d="M29.5 39.5V24.5H59.5V39.5" stroke="#55EC3B" stroke-width="1.52" stroke-miterlimit="10" stroke-linecap="round"/>
<path d="M57.5 60.5L51.5 60.5" stroke="#0D0D0D" stroke-width="1.52" stroke-miterlimit="10" stroke-linecap="round"/>
<path d="M52.5 31.5L42.875 41.5L38.5 36.9545" stroke="#55EC3B" stroke-width="1.56" stroke-linecap="round" stroke-linejoin="round"/>
</svg>
