<svg width="44" height="20" viewBox="0 0 44 20" fill="none" xmlns="http://www.w3.org/2000/svg">
<path d="M22.0371 3.25653L19.1971 16.5319H15.7631L18.6034 3.25653H22.0371ZM36.4855 11.8285L38.2935 6.84312L39.3339 11.8285H36.4855ZM40.3171 16.5319H43.4936L40.7217 3.25653H37.7897C37.1309 3.25653 36.575 3.63973 36.3275 4.23049L31.1754 16.5319H34.7817L35.4977 14.5495H39.9036L40.3171 16.5319ZM31.3544 12.1974C31.3691 8.69356 26.5089 8.50071 26.5426 6.93556C26.5526 6.45867 27.0069 5.95278 27.9989 5.82295C28.4917 5.75866 29.8468 5.7095 31.3855 6.41749L31.988 3.60233C31.1615 3.30233 30.0981 3.01367 28.7754 3.01367C25.3812 3.01367 22.9921 4.81831 22.9719 7.40237C22.9505 9.31332 24.6774 10.3797 25.9787 11.015C27.3165 11.6659 27.7661 12.0827 27.7602 12.6646C27.7514 13.5558 26.693 13.9482 25.7056 13.9638C23.9787 13.9911 22.9766 13.4978 22.1778 13.1255L21.5555 16.0344C22.3576 16.4029 23.8388 16.7231 25.3753 16.7394C28.9825 16.7394 31.3426 14.9571 31.3544 12.1974ZM17.1299 3.25653L11.566 16.5319H7.93525L5.19741 5.93723C5.03102 5.2847 4.88648 5.04605 4.38101 4.77083C3.55621 4.32335 2.19276 3.90276 0.993164 3.64225L1.0751 3.25653H6.91843C7.66297 3.25653 8.33315 3.75234 8.50206 4.60991L9.94829 12.2923L13.5219 3.25653H17.1299Z" fill="#1434CB"/>
</svg>
